PathFileType	4	(X/Y/Z)	TVC_20_BWA2_walk_RCNL2025.trc
DataRate	CameraRate	NumFrames	NumMarkers	Units	OrigDataRate	OrigDataStartFrame	OrigNumFrames
100	100	8	27	mm	100	56	221
Frame#	Time	R_Shoulder			L_Shoulder			C7			J_Notch			R_Elbow			L_Elbow			R_Wrist			L_Wrist			R_Asis			L_Asis			R_Psis			L_Psis			Sacral			Thoracic			Sternum			R_Thigh_Lateral			R_Knee_Lateral			R_Shank_Lateral			R_Ankle_Lateral			R_Heel			R_Toe			L_Thigh_Lateral			L_Knee_Lateral			L_Shank_Lateral			L_Ankle_Lateral			L_Heel			L_Toe		
		X1	Y1	Z1	X2	Y2	Z2	X3	Y3	Z3	X4	Y4	Z4	X5	Y5	Z5	X6	Y6	Z6	X7	Y7	Z7	X8	Y8	Z8	X9	Y9	Z9	X10	Y10	Z10	X11	Y11	Z11	X12	Y12	Z12	X13	Y13	Z13	X14	Y14	Z14	X15	Y15	Z15	X16	Y16	Z16	X17	Y17	Z17	X18	Y18	Z18	X19	Y19	Z19	X20	Y20	Z20	X21	Y21	Z21	X22	Y22	Z22	X23	Y23	Z23	X24	Y24	Z24	X25	Y25	Z25	X26	Y26	Z26	X27	Y27	Z27
56	0.55000000	6.375325	1354.750732	152.531754	-41.395126	1381.869507	-212.082565	-47.469601	1420.771362	-11.867633	71.070282	1288.327148	-32.083447	-1.072426	1040.618042	248.809479	-136.407410	1089.372925	-323.104462	189.841011	871.245117	197.956512	-35.080425	848.218475	-344.176743	-5.745490	967.373108	113.448601	38.385597	966.362488	-163.488266	-141.650208	967.551147	-6.432041	-140.502792	950.905396	-96.313423	-141.076500	959.228271	-51.372732	-162.436310	1197.208252	-41.295189	82.220612	1146.121094	-39.802692	-108.142929	647.965210	167.336945	-159.020691	454.639130	84.613831	-275.990356	310.861481	131.165482	-379.813416	103.865463	40.483784	-433.161835	101.133087	-7.018916	-254.056580	32.790619	12.704896	106.061195	616.841248	-231.089279	197.049698	488.819336	-148.811005	222.899490	305.422089	-196.673004	282.455933	74.078873	-111.510590	240.814713	56.266075	-67.012970	424.403412	70.205223	-85.780067
57	0.56000000	20.544285	1355.146851	151.034225	-26.699787	1380.890625	-213.819962	-33.223618	1420.771240	-13.742893	85.655762	1288.421265	-33.298721	11.604639	1041.182007	247.921738	-119.849838	1087.201294	-323.434967	201.917099	870.677032	198.590996	-18.488102	845.915863	-342.984314	9.423759	967.092957	113.187096	53.663734	966.293213	-163.566528	-126.528442	967.316711	-6.604685	-125.232101	950.893860	-96.603073	-125.880272	959.105286	-51.603879	-147.712708	1196.827271	-42.095287	97.192749	1146.218018	-40.569256	-93.671867	648.114075	167.998077	-144.069763	453.527863	86.735489	-265.118774	312.937347	132.698288	-374.939606	109.492493	42.419987	-427.931641	109.713356	-4.802289	-254.107010	32.658569	12.662346	123.276619	618.274597	-230.271866	212.616226	488.945648	-147.738983	235.793442	304.680328	-194.973938	287.396179	72.630043	-109.839752	244.963852	56.320702	-65.531898	428.797882	64.748444	-83.602020
58	0.57000000	34.752239	1355.931274	149.499741	-11.880873	1380.285400	-215.582001	-18.892292	1421.160522	-15.677307	100.305794	1288.914917	-34.542786	24.046158	1042.153442	247.007584	-102.866386	1085.315918	-323.758514	213.617859	870.353424	199.326508	-1.488444	843.893097	-341.865234	24.836437	967.153076	112.804764	68.861336	966.697876	-163.741776	-111.323906	967.391846	-6.634456	-109.962349	951.296570	-96.768265	-110.643127	959.344208	-51.701360	-132.929291	1196.822388	-42.865097	112.224533	1146.711060	-41.404469	-78.116776	648.255249	168.680862	-127.736763	452.341309	88.998039	-252.936432	315.177979	134.362183	-368.998840	115.864143	44.513607	-421.394653	119.267578	-2.452800	-253.969208	32.760399	12.688726	140.326599	620.121460	-229.581207	227.908066	489.317841	-146.787567	248.389008	304.268524	-193.523987	291.388000	71.441727	-108.494408	248.059464	56.629196	-64.464790	432.197449	59.320908	-81.583122
59	0.58000000	48.968887	1357.092896	147.945129	3.036670	1380.053101	-217.348236	-4.498618	1421.924316	-17.652855	114.988480	1289.787354	-35.798325	36.261044	1043.523438	246.079346	-85.528389	1083.742798	-324.075592	224.962372	870.282745	200.152039	15.912116	842.204803	-340.816833	40.412815	967.537415	112.316895	83.940880	967.573486	-164.013580	-96.089737	967.756531	-6.529050	-94.741699	952.094788	-96.809769	-95.415718	959.925659	-51.669410	-118.121223	1197.189209	-43.606060	127.269714	1147.578491	-42.285561	-61.450291	648.339966	169.382019	-109.944489	451.060425	91.357597	-239.299500	317.531586	136.138931	-361.865265	122.997398	46.736008	-413.417786	129.761948	-0.006642	-253.482635	33.210545	12.833526	157.005096	622.266541	-229.024475	242.760605	489.878967	-145.960922	260.590759	304.154938	-192.337296	294.606232	70.541931	-107.462029	250.341080	57.136879	-63.781734	434.813446	54.186646	-79.766541
60	0.59000000	63.163433	1358.611572	146.389420	18.023384	1380.182617	-219.097107	9.931215	1423.038818	-19.647974	129.671173	1291.008301	-37.045567	48.260914	1045.272827	245.151077	-67.917404	1082.502075	-324.394287	235.976524	870.466858	201.055946	33.703837	840.903320	-339.837219	56.066021	968.218872	111.743904	98.869682	968.901489	-164.379608	-80.878860	968.387939	-6.305967	-79.614708	953.262817	-96.737053	-80.246784	960.825378	-51.521510	-103.323311	1197.913818	-44.319679	142.282745	1148.789185	-43.185062	-43.686874	648.331299	170.094299	-90.655647	449.680145	93.758583	-224.090149	319.944427	138.005447	-353.428101	130.881760	49.056980	-403.898193	141.116394	2.498705	-252.435806	34.128479	13.154656	173.115479	624.587097	-228.606659	257.009369	490.561584	-145.262878	272.264557	304.282013	-191.414627	297.187378	69.927917	-106.711716	252.005219	57.775608	-63.430370	436.818542	49.558617	-78.181763
61	0.60000000	77.305389	1360.457764	144.853851	33.046856	1380.653320	-220.806503	24.369511	1424.472656	-21.637892	144.322098	1292.539917	-38.262608	60.059399	1047.372192	244.238266	-50.120453	1081.606567	-324.729095	246.691505	870.900757	202.026649	51.872332	840.035126	-338.925995	71.707870	969.161987	111.110413	113.622894	970.647461	-164.833817	-65.741234	969.263367	-5.991903	-64.619850	954.770691	-96.568718	-65.180542	962.017029	-51.280311	-88.568344	1198.974121	-45.007381	157.221054	1150.305054	-44.071918	-24.883173	648.209778	170.806107	-69.878197	448.214386	96.137512	-207.227386	322.367371	139.933838	-343.594330	139.471603	51.445427	-392.767883	153.198975	5.024941	-250.566299	35.626080	13.713388	188.479614	626.960999	-228.328979	270.500336	491.293732	-144.696182	283.252319	304.575043	-190.744980	299.234772	69.571503	-106.199982	253.204971	58.473602	-63.343990	438.348206	45.584923	-76.843307
62	0.61000000	91.365730	1362.594971	143.361404	48.073441	1381.437256	-222.454666	38.789051	1426.189819	-23.595327	158.911728	1294.339233	-39.426178	71.671555	1049.782593	243.357269	-32.224644	1081.061646	-325.098877	257.141891	871.573181	203.053291	70.397097	839.638214	-338.084503	87.254921	970.327026	110.443642	128.185303	972.762878	-165.365067	-50.721317	970.362488	-5.620862	-49.787872	956.586487	-96.331528	-50.254595	963.474487	-50.976195	-73.885689	1200.342407	-45.670273	172.046951	1152.083618	-44.913372	-5.135745	647.977905	171.502014	-47.667320	446.699646	98.428459	-188.676407	324.763031	141.892014	-332.289154	148.679199	53.869656	-379.995026	165.823242	7.533335	-247.566422	37.792648	14.567861	202.947784	629.274902	-228.188004	283.100098	492.005432	-144.261642	293.391022	304.953033	-190.308838	300.826202	69.426941	-105.877304	254.054352	59.164673	-63.450363	439.505402	42.343838	-75.751587
63	0.62000000	105.318359	1364.981079	141.936005	63.069977	1382.502197	-224.020905	53.165062	1428.152344	-25.491564	173.414154	1296.361572	-40.512844	83.113396	1052.458984	242.524445	-14.311917	1080.866333	-325.523926	267.363480	872.466827	204.126305	89.250214	839.739807	-337.315720	102.634148	971.674866	109.771332	142.551544	975.188049	-165.956787	-35.855988	971.669678	-5.231126	-35.140980	958.678284	-96.058136	-35.498484	965.173981	-50.644631	-59.300186	1201.987671	-46.308918	186.729019	1154.080688	-45.677433	15.423948	647.662903	172.163879	-24.123739	445.196381	100.569534	-168.455322	327.111633	143.844910	-319.454285	158.369904	56.297436	-365.581573	178.749619	9.985386	-243.094467	40.679550	15.765926	216.409225	631.433655	-228.175339	294.704742	492.635590	-143.957657	302.533875	305.339966	-190.081665	302.022247	69.439735	-105.694260	254.635437	59.795357	-63.679832	440.366913	39.847282	-74.895355
